<svg id="Bahan_copy" data-name="Bahan copy" xmlns="http://www.w3.org/2000/svg" viewBox="0 0 64 64"><defs><style>.cls-1{fill:#231f20;}</style></defs><title>1</title><path class="cls-1" d="M59.21191,15.43555,48.56543,4.78809a3.07372,3.07372,0,0,0-4.24316,0L4.78809,44.32227a3.01365,3.01365,0,0,0,0,4.24218L15.43457,59.21191a3.01512,3.01512,0,0,0,4.24316,0L59.21191,19.67773A3.01375,3.01375,0,0,0,59.21191,15.43555Zm-1.41406,2.82812L18.26367,57.79785a1.022,1.022,0,0,1-1.41406,0L6.20215,47.14941a1.00343,1.00343,0,0,1,0-1.41308L8.9668,42.97168,13.87207,47.877a1.00006,1.00006,0,0,0,1.414-1.41411l-4.90524-4.90522,3.24206-3.24207L16.51563,41.209a.99989.99989,0,0,0,1.41406-1.41406L15.037,36.90149l3.24133-3.24133,4.90527,4.90527a1.00007,1.00007,0,0,0,1.414-1.41411l-4.90523-4.90523,3.24219-3.24218,2.89258,2.89257a1.00007,1.00007,0,0,0,1.414-1.4141l-2.89254-2.89254,3.24121-3.24121,4.90528,4.90528a1.00008,1.00008,0,0,0,1.414-1.41411l-4.90522-4.90523,3.24218-3.24219L35.13867,22.585a1.00009,1.00009,0,0,0,1.414-1.4141l-2.89252-2.89254,3.24121-3.24121,4.90527,4.90527a1.0001,1.0001,0,0,0,1.414-1.4141l-4.90522-4.90523,3.24219-3.24219,2.89258,2.89258a.99989.99989,0,0,0,1.41406-1.41406L42.97168,8.9668l2.76465-2.76465a.99963.99963,0,0,1,1.41406,0L57.79785,16.85059A1.00351,1.00351,0,0,1,57.79785,18.26367Z"/></svg>