<?xml version="1.0" encoding="UTF-8"?>
<svg id="Layer_1" data-name="Layer 1" xmlns="http://www.w3.org/2000/svg" viewBox="0 0 424 72">
  <path d="M420,0H4C1.79,0,0,1.79,0,4v64c0,2.21,1.79,4,4,4h416c2.21,0,4-1.79,4-4V4c0-2.21-1.79-4-4-4ZM416,64H8V8h24v12c0,2.21,1.79,4,4,4s4-1.79,4-4v-12h24v12c0,2.21,1.79,4,4,4s4-1.79,4-4v-12h24v12c0,2.21,1.79,4,4,4s4-1.79,4-4v-12h24v12c0,2.21,1.79,4,4,4s4-1.79,4-4v-12h24v28c0,2.21,1.79,4,4,4s4-1.79,4-4V8h24v12c0,2.21,1.79,4,4,4s4-1.79,4-4v-12h24v12c0,2.21,1.79,4,4,4s4-1.79,4-4v-12h24v12c0,2.21,1.79,4,4,4s4-1.79,4-4v-12h24v12c0,2.21,1.79,4,4,4s4-1.79,4-4v-12h24v28c0,2.21,1.79,4,4,4s4-1.79,4-4V8h24v12c0,2.21,1.79,4,4,4s4-1.79,4-4v-12h24v12c0,2.21,1.79,4,4,4s4-1.79,4-4v-12h24v56Z"/>
</svg>